<?xml version="1.0" encoding="UTF-8"?>
<svg version="1.1" xmlns="http://www.w3.org/2000/svg" width="529" height="125">
<path d="M0 0 C0.82757813 0.79083984 0.82757813 0.79083984 1.671875 1.59765625 C4.09719035 3.65677299 6.320253 3.94576506 9.4375 4.3125 C15.21575657 3.74414689 18.99038568 0.74519146 23.4375 -2.8125 C25.76106536 -4.41495887 27.43645037 -4.85663052 30.25 -5.0625 C33.63874141 -4.09428817 36.22521362 -2.99844026 38.25 -0.0625 C39.70719988 4.69768627 39.20282944 7.4346053 37.1875 11.8125 C35.17814948 16.3735171 34.98259104 19.27380407 36.421875 24.03515625 C38.12985461 27.95867545 40.73617504 29.60565471 44.25 31.875 C47.39109877 34.0345054 49.33254223 35.63947263 51.25 38.9375 C51.25 43.02117503 50.90876935 45.12997628 48.3125 48.3125 C44.82940478 51.05675684 42.93774703 50.97718935 38.5625 50.8125 C31.96530108 50.77299581 27.92811331 51.47653101 22.9375 56.0625 C21.34039045 58.78350146 20.86625418 60.40695442 20.3125 63.4375 C19.44048744 67.94790978 18.09831071 70.20092349 14.25 72.9375 C10.39595711 74.03865511 8.25246955 74.32481778 4.5 72.875 C0.63286603 69.54496797 -0.62430952 65.74991131 -1.5625 60.875 C-2.62282477 56.33820058 -4.77281139 54.41386272 -8.75 51.9375 C-12.70725378 50.96685285 -16.33956151 50.94873142 -20.375 51.0625 C-24.31856923 51.10952723 -26.61633205 50.50141014 -29.75 47.9375 C-32.13313638 44.36279543 -32.39837918 43.15196465 -31.75 38.9375 C-29.26783704 34.85650609 -26.19679877 31.99357167 -22 29.75 C-18.5971405 27.85225143 -18.04350692 27.40335587 -16.75 23.9375 C-16.13198602 19.1458851 -16.1522345 14.62998784 -18.3125 10.25 C-20.06414567 6.21359911 -19.93974263 4.14125729 -18.75 -0.0625 C-16.96672252 -2.39920843 -15.57062322 -3.66633707 -12.9375 -4.9375 C-7.6638446 -5.23885174 -3.85945067 -3.39435831 0 0 Z M3.25 22.9375 C2.26 26.8975 1.27 30.8575 0.25 34.9375 C3.22 37.2475 6.19 39.5575 9.25 41.9375 C15.56259117 38.52162624 15.56259117 38.52162624 19.25 32.9375 C18.71805397 30.39731734 18.71805397 30.39731734 17.8125 27.75 C17.296875 26.161875 16.78125 24.57375 16.25 22.9375 C11.96 22.9375 7.67 22.9375 3.25 22.9375 Z " fill="#BB58AE" transform="translate(109.75,35.0625)"/>
<path d="M0 0 C4.62 0 9.24 0 14 0 C14 7.26 14 14.52 14 22 C20.6 22 27.2 22 34 22 C34 14.74 34 7.48 34 0 C38.62 0 43.24 0 48 0 C48 18.48 48 36.96 48 56 C43.38 56 38.76 56 34 56 C34 48.41 34 40.82 34 33 C27.4 33 20.8 33 14 33 C14 40.59 14 48.18 14 56 C9.38 56 4.76 56 0 56 C0 37.52 0 19.04 0 0 Z " fill="#202020" transform="translate(201,34)"/>
<path d="M0 0 C3.44579099 3.18896185 6.19358073 6.64284982 8 11 C8 12.32 8 13.64 8 15 C5.60225255 15.13572155 3.21224755 15.23436868 0.8125 15.3125 C-0.19780273 15.3753418 -0.19780273 15.3753418 -1.22851562 15.43945312 C-5.24857254 15.53750329 -6.76964729 15.19766965 -9.86328125 12.54296875 C-10.56839844 11.70378906 -11.27351563 10.86460938 -12 10 C-15.70487832 8.14756084 -19.95614188 8.5414838 -24 9 C-28.16541726 11.34304721 -29.52026966 13.56080899 -31 18 C-31.65802939 23.25658358 -31.62101869 27.66242129 -29.375 32.5 C-26.26477639 35.77391959 -23.65151325 37.82809443 -19.01171875 38.12890625 C-16.73548688 37.98744551 -15.12921499 37.85332701 -13 37 C-11.89785156 35.74123047 -11.89785156 35.74123047 -10.7734375 34.45703125 C-7.01961211 31.13145918 -4.50919076 31.40741966 0.3125 31.6875 C1.05306641 31.71005859 1.79363281 31.73261719 2.55664062 31.75585938 C4.37197357 31.8144185 6.18625681 31.90409114 8 32 C6.83070902 38.79793677 3.32731737 43.37695957 -1.953125 47.67578125 C-9.05364784 52.26944011 -17.3160961 52.91733892 -25.46875 51.6015625 C-33.15521755 49.77484027 -39.02666237 45.46822008 -43.4140625 38.875 C-47.32438224 31.44820567 -48.24090908 23.38225624 -46.3515625 15.1875 C-43.97203306 7.86587095 -40.50270344 1.69848429 -33.7578125 -2.34375 C-22.4374297 -7.67995738 -10.43082516 -7.14264911 0 0 Z " fill="#202020" transform="translate(461,39)"/>
<path d="M0 0 C3.44579099 3.18896185 6.19358073 6.64284982 8 11 C8 12.32 8 13.64 8 15 C5.60225255 15.13572155 3.21224755 15.23436868 0.8125 15.3125 C-0.19780273 15.3753418 -0.19780273 15.3753418 -1.22851562 15.43945312 C-5.24857254 15.53750329 -6.76964729 15.19766965 -9.86328125 12.54296875 C-10.56839844 11.70378906 -11.27351563 10.86460938 -12 10 C-15.70487832 8.14756084 -19.95614188 8.5414838 -24 9 C-28.16541726 11.34304721 -29.52026966 13.56080899 -31 18 C-31.65802939 23.25658358 -31.62101869 27.66242129 -29.375 32.5 C-26.26477639 35.77391959 -23.65151325 37.82809443 -19.01171875 38.12890625 C-16.73548688 37.98744551 -15.12921499 37.85332701 -13 37 C-11.89785156 35.74123047 -11.89785156 35.74123047 -10.7734375 34.45703125 C-7.01961211 31.13145918 -4.50919076 31.40741966 0.3125 31.6875 C1.05306641 31.71005859 1.79363281 31.73261719 2.55664062 31.75585938 C4.37197357 31.8144185 6.18625681 31.90409114 8 32 C6.83070902 38.79793677 3.32731737 43.37695957 -1.953125 47.67578125 C-9.05364784 52.26944011 -17.3160961 52.91733892 -25.46875 51.6015625 C-33.15521755 49.77484027 -39.02666237 45.46822008 -43.4140625 38.875 C-47.32438224 31.44820567 -48.24090908 23.38225624 -46.3515625 15.1875 C-43.97203306 7.86587095 -40.50270344 1.69848429 -33.7578125 -2.34375 C-22.4374297 -7.67995738 -10.43082516 -7.14264911 0 0 Z " fill="#202020" transform="translate(303,39)"/>
<path d="M0 0 C3.75398002 3.97480237 5.125 7.83266619 5.125 13.25 C0.175 13.25 -4.775 13.25 -9.875 13.25 C-10.535 11.93 -11.195 10.61 -11.875 9.25 C-14.93675236 8.59391021 -17.74721384 8.25 -20.875 8.25 C-21.37741322 10.5795947 -21.37741322 10.5795947 -20.875 13.25 C-17.18221587 16.62625977 -13.04226778 17.97527948 -8.375 19.6875 C-2.12453197 22.0251893 2.35453902 23.86303117 5.5625 30 C6.55038039 35.70775335 6.05863268 40.34682568 3.5 45.5625 C-0.78520042 50.41154258 -5.88241537 52.86094623 -12.3203125 53.48828125 C-19.84261075 53.69662479 -26.48881426 52.65811673 -32.57421875 47.9296875 C-36.27434838 44.04932232 -36.61100307 40.35394072 -36.875 35.25 C-34.43565775 35.11498106 -32.00375896 35.01596103 -29.5625 34.9375 C-28.87220703 34.89560547 -28.18191406 34.85371094 -27.47070312 34.81054688 C-25.44921875 34.76171875 -25.44921875 34.76171875 -21.875 35.25 C-20.1171875 37.7421875 -20.1171875 37.7421875 -18.875 40.25 C-15.33269191 40.83342353 -15.33269191 40.83342353 -11.875 40.25 C-11.215 39.59 -10.555 38.93 -9.875 38.25 C-9.81598078 36.22922654 -9.81598078 36.22922654 -10.875 34.25 C-14.4900738 31.76791129 -18.19067651 30.3217649 -22.3125 28.875 C-28.35759592 26.59099317 -32.84484858 24.66434558 -36.25 18.9375 C-37.41898264 13.91087467 -37.44979464 9.8785848 -35.75 5.0625 C-32.7577833 0.57417495 -29.5839877 -2.07285393 -24.5625 -4.0625 C-15.54827338 -5.74311852 -7.91693368 -4.81900311 0 0 Z " fill="#202020" transform="translate(402.875,37.75)"/>
<path d="M0 0 C3.75398002 3.97480237 5.125 7.83266619 5.125 13.25 C0.175 13.25 -4.775 13.25 -9.875 13.25 C-10.535 11.93 -11.195 10.61 -11.875 9.25 C-14.93675236 8.59391021 -17.74721384 8.25 -20.875 8.25 C-21.37741322 10.5795947 -21.37741322 10.5795947 -20.875 13.25 C-17.18221587 16.62625977 -13.04226778 17.97527948 -8.375 19.6875 C-2.12453197 22.0251893 2.35453902 23.86303117 5.5625 30 C6.55038039 35.70775335 6.05863268 40.34682568 3.5 45.5625 C-0.78520042 50.41154258 -5.88241537 52.86094623 -12.3203125 53.48828125 C-19.84261075 53.69662479 -26.48881426 52.65811673 -32.57421875 47.9296875 C-36.27434838 44.04932232 -36.61100307 40.35394072 -36.875 35.25 C-34.43565775 35.11498106 -32.00375896 35.01596103 -29.5625 34.9375 C-28.87220703 34.89560547 -28.18191406 34.85371094 -27.47070312 34.81054688 C-25.44921875 34.76171875 -25.44921875 34.76171875 -21.875 35.25 C-20.1171875 37.7421875 -20.1171875 37.7421875 -18.875 40.25 C-15.33269191 40.83342353 -15.33269191 40.83342353 -11.875 40.25 C-11.215 39.59 -10.555 38.93 -9.875 38.25 C-9.81598078 36.22922654 -9.81598078 36.22922654 -10.875 34.25 C-14.4900738 31.76791129 -18.19067651 30.3217649 -22.3125 28.875 C-28.35759592 26.59099317 -32.84484858 24.66434558 -36.25 18.9375 C-37.41898264 13.91087467 -37.44979464 9.8785848 -35.75 5.0625 C-32.7577833 0.57417495 -29.5839877 -2.07285393 -24.5625 -4.0625 C-15.54827338 -5.74311852 -7.91693368 -4.81900311 0 0 Z " fill="#202020" transform="translate(353.875,37.75)"/>
<path d="M0 0 C4.10958767 1.45044271 7.43258745 3.51110752 11 6 C13.64 4.02 16.28 2.04 19 0 C23.40063091 2.20031546 23.40063091 2.20031546 25.25 5.3125 C28.04503436 9.50067061 31.62733928 11.64549038 36 14 C33 16 33 16 29.5625 17.3125 C25.64307692 19.16906883 24.17981015 20.28624937 22 24 C21.64755354 25.49111963 21.33791127 26.99274923 21.0625 28.5 C20.19048744 33.01040978 18.84831071 35.26342349 15 38 C11.14595711 39.10115511 9.00246955 39.38731778 5.25 37.9375 C1.38286603 34.60746797 0.12569048 30.81241131 -0.8125 25.9375 C-1.87113612 21.39924844 -4.06211934 19.52618759 -8 17 C-10.34072253 16.1040521 -12.53975121 15.54125473 -15 15 C-10 11 -10 11 -7.5 9.1875 C-4.35058531 6.43176214 -2.33471816 3.46872412 0 0 Z " fill="#F167B0" transform="translate(109,70)"/>
<path d="M0 0 C0.66 0 1.32 0 2 0 C2.70125 0.9075 3.4025 1.815 4.125 2.75 C7.9028761 7.46398699 12.68302794 9.50350599 18.5 10.75 C19.325 10.8325 20.15 10.915 21 11 C20.15051651 20.85400854 15.91691274 28.95717665 8.28125 35.46484375 C4.60031139 38 4.60031139 38 2 38 C2 38.66 2 39.32 2 40 C-7.6402439 40.56707317 -7.6402439 40.56707317 -12 37 C-14.38313638 33.42529543 -14.64837918 32.21446465 -14 28 C-11.51783704 23.91900609 -8.44679877 21.05607167 -4.25 18.8125 C-0.84831053 16.91540395 -0.27565017 16.47568451 1 13 C1.27739864 10.51134545 1.27739864 10.51134545 1.1875 7.9375 C1.18105469 7.08027344 1.17460938 6.22304688 1.16796875 5.33984375 C1.08590034 2.84522032 1.08590034 2.84522032 0 0 Z " fill="#BB58AE" transform="translate(92,46)"/>
<path d="M0 0 C1 2 1 2 0.375 4.0625 C-0.19765019 8.5482598 0.72454431 12.09230254 3 16 C5.16922998 17.82477758 7.39865693 19.22687158 9.83203125 20.67578125 C12.70185865 22.42870285 14.40510255 24.02769112 16 27 C16 31.08367503 15.65876935 33.19247628 13.0625 36.375 C9.95687256 38.82185798 8.26444106 39.11806344 4.375 39.0625 C3.14910156 39.04896484 3.14910156 39.04896484 1.8984375 39.03515625 C1.27195313 39.02355469 0.64546875 39.01195312 0 39 C0 38.34 0 37.68 0 37 C-0.70125 36.773125 -1.4025 36.54625 -2.125 36.3125 C-10.17191788 32.63890705 -14.99654428 25.73544079 -18.375 17.75 C-18.98787888 15.05333293 -19.04616149 12.75122471 -19 10 C-18.21496094 9.78085937 -17.42992188 9.56171875 -16.62109375 9.3359375 C-9.70132245 7.24727034 -5.12002649 5.12002649 0 0 Z " fill="#BA59AE" transform="translate(145,47)"/>
<path d="M0 0 C4.99709951 2.54754093 8.50939704 5.98866582 11 11 C11.65084486 13.73259129 11.85134473 16.17554988 12 19 C1.55180881 27.43280406 1.55180881 27.43280406 -6 26.875 C-10.74126367 26.10295515 -14.3744382 24.06889683 -17.375 20.25 C-18.76549925 15.24420269 -18.75274014 10.85687152 -16.375 6.25 C-12.24177443 -0.05100122 -7.30792589 -2.25535188 0 0 Z " fill="#4DC7F4" transform="translate(79,39)"/>
<path d="M0 0 C5.83670104 0.06413957 9.62858897 0.9138638 14.23828125 4.53515625 C17.27695594 7.8163859 18.77191224 10.95177402 19 15.4375 C17.97794736 20.44017873 15.31719604 23.56607072 11.1875 26.4375 C7.32188191 28.55319079 4.43069997 29.17594999 0 28.4375 C-4.36761454 26.16970014 -7.07613769 23.99401599 -9 19.4375 C-10.65565713 12.85337515 -9.7732032 7.58797045 -7 1.4375 C-5.16603812 -0.39646188 -2.47345426 0.09447221 0 0 Z " fill="#F268B1" transform="translate(143,89.5625)"/>
<path d="M0 0 C5.08178663 2.54089332 8.08775594 5.70372853 10 11 C10.81960945 15.323858 10.29978407 18.421845 8.25 22.375 C5.42762875 25.66776645 3.56365589 26.78778956 -0.734375 27.37109375 C-7.89453177 27.5287656 -12.47464384 26.67530137 -18 22 C-18.66 21.34 -19.32 20.68 -20 20 C-19.80387274 14.11618234 -18.81316943 10.66054042 -15 6 C-10.23093444 1.70784099 -6.56544501 -0.7878534 0 0 Z " fill="#4DC7F4" transform="translate(168,38)"/>
<path d="M0 0 C3.54282127 2.50589797 5.11895272 4.50963834 5.94921875 8.8203125 C6.40351248 14.61508136 4.70688139 18.24778406 1.27734375 22.85546875 C-1.16338928 25.64090668 -3.06369776 27.23327342 -6.4375 28.8125 C-10.17333043 29.00408105 -12.2409692 27.36684522 -15.0625 25.125 C-19.69071267 20.8597844 -21.57593917 17.05831436 -21.875 10.75 C-21.76464219 7.25533603 -21.49669825 5.91398271 -19.6875 2.8125 C-13.8986554 -2.33313965 -7.1621389 -2.47419344 0 0 Z " fill="#F268B1" transform="translate(127.4375,8.1875)"/>
<path d="M0 0 C1.06863281 0.01804687 2.13726562 0.03609375 3.23828125 0.0546875 C4.04652344 0.07789062 4.85476562 0.10109375 5.6875 0.125 C8.74840781 5.44831793 10.37220778 10.41412837 9.25 16.49609375 C7.81148769 21.47367328 6.24147727 24.32255245 1.6875 27.125 C-1.54010391 28.73880195 -3.71829169 28.52435648 -7.3125 28.125 C-12.08962433 25.72863208 -16.34977709 23.27962582 -18.3125 18.125 C-18.94865348 13.88397682 -19.21268797 11.56631219 -16.921875 7.8984375 C-11.89043908 1.88259021 -7.94225444 -0.17455504 0 0 Z " fill="#F268B1" transform="translate(96.3125,89.875)"/>
<path d="M0 0 C2.87692895 1.822055 2.99720002 2.9883693 3.8125 6.375 C4.00790876 10.15290275 3.68124376 11.68924306 2 15 C-2.87300423 19.95388397 -8.36926378 23.08944889 -15 25 C-16.32 25 -17.64 25 -19 25 C-19.80145695 9.14896261 -19.80145695 9.14896261 -15 3 C-9.77186047 -1.97310833 -6.77380761 -2.419217 0 0 Z " fill="#BB58AD" transform="translate(145,32)"/>
<path d="M0 0 C5.41084684 3.40110373 7.97632975 8.08592695 10 14 C10.91006227 19.44581265 11.02526477 23.44656854 7.9375 28.125 C4.41940733 30.37059106 2.17217661 31 -2 31 C-4.8125 30 -4.8125 30 -7 28 C-9.22694496 22.48566009 -10.21884166 17.13693909 -8.01953125 11.4765625 C-5.90513574 7.03958484 -3.87524993 3.15761105 0 0 Z " fill="#EE3B99" transform="translate(119,78)"/>
<path d="M0 0 C0.66 0 1.32 0 2 0 C2.70125 0.9075 3.4025 1.815 4.125 2.75 C7.9028761 7.46398699 12.68302794 9.50350599 18.5 10.75 C19.325 10.8325 20.15 10.915 21 11 C20.51424554 15.7765855 19.91138899 19.56340198 18 24 C17.35675781 23.7834375 16.71351562 23.566875 16.05078125 23.34375 C8.56932522 21.03847967 1.79612941 20.66534898 -6 21 C-5.21625 20.4225 -4.4325 19.845 -3.625 19.25 C-0.38602707 16.47373749 0.835459 14.76532971 1.23046875 10.52734375 C1.21628906 9.67269531 1.20210938 8.81804688 1.1875 7.9375 C1.18105469 7.08027344 1.17460938 6.22304688 1.16796875 5.33984375 C1.08590034 2.84522032 1.08590034 2.84522032 0 0 Z " fill="#4EC5F3" transform="translate(92,46)"/>
<path d="M0 0 C1.010625 0.495 2.02125 0.99 3.0625 1.5 C9.01780249 4.03340489 14.0563198 3.31948496 20 1 C19.68289062 1.82757813 19.36578125 2.65515625 19.0390625 3.5078125 C17.90524027 7.31847819 17.55838311 10.93226312 17.375 14.875 C17.33632812 15.56335937 17.29765625 16.25171875 17.2578125 16.9609375 C17.16451834 18.64023246 17.08121762 20.32007767 17 22 C12.52745503 23.49084832 8.47254497 23.49084832 4 22 C3.96261719 21.16597656 3.92523438 20.33195312 3.88671875 19.47265625 C3.47618784 12.4453331 2.55765031 6.56092905 0 0 Z " fill="#F067B0" transform="translate(109,36)"/>
<path d="M0 0 C1 2 1 2 0.375 4.0625 C-0.17699638 8.38647167 0.93420471 12.17622659 3 16 C5.51828986 18.26026297 5.51828986 18.26026297 8 20 C7.02160156 19.96519531 6.04320312 19.93039063 5.03515625 19.89453125 C-2.59261917 19.73702556 -8.8685332 19.99727714 -16 23 C-17.88654385 18.36224637 -19.21225675 15.04994191 -19 10 C-18.21496094 9.78085937 -17.42992188 9.56171875 -16.62109375 9.3359375 C-9.70132245 7.24727034 -5.12002649 5.12002649 0 0 Z " fill="#4DC6F3" transform="translate(145,47)"/>
</svg>
